<?xml version="1.0" encoding="UTF-8"?>
<svg version="1.1" xmlns="http://www.w3.org/2000/svg" width="1024" height="1024">
<path d="M0 0 C2.05492481 0.00564815 4.10984134 0.00846364 6.16477203 0.0110817 C26.10457255 0.04800384 45.74859571 0.51455344 65.52213287 3.31805801 C67.40496979 3.56749161 67.40496979 3.56749161 69.32584381 3.82196426 C120.27651149 10.64402242 169.84716737 24.69542283 216.52213287 46.31805801 C217.54903229 46.78969376 218.5759317 47.2613295 219.63394928 47.74725723 C249.57582905 61.55615477 277.94585194 78.0738448 304.41373444 97.75214005 C306.50263998 99.30358054 308.60130667 100.84097794 310.70182037 102.37665176 C319.66588143 108.96900278 328.16913543 115.97124263 336.52213287 123.31805801 C337.28010162 123.97547989 338.03807037 124.63290176 338.81900787 125.31024551 C340.72979815 126.96881147 342.62632512 128.64239531 344.52213287 130.31805801 C345.20026031 130.91134903 345.87838776 131.50464005 346.57706451 132.11590958 C353.59507811 138.33056202 360.23961827 144.88238217 366.85489655 151.52045059 C368.71355396 153.38449045 370.57752901 155.24309313 372.44205475 157.10126114 C378.34712572 163.00268862 384.15715463 168.91349276 389.52213287 175.31805801 C390.43409078 176.37474072 391.34682083 177.43075766 392.26041412 178.48602676 C452.50970641 249.15780664 491.87048359 334.97488864 510.83463287 443.50555801 C510.9818277 444.55203506 511.12902252 445.59851212 511.2806778 446.67670059 C511.74483975 450.21916071 512.1494329 453.76507039 512.52213287 457.31805801 C512.60826843 458.12704544 512.69440399 458.93603287 512.78314972 459.76953506 C514.50402084 476.44611603 514.88699992 493.03842075 514.84019089 509.79592514 C514.83454274 511.85084995 514.83172725 513.90576648 514.82910919 515.96069717 C514.79218704 535.90049769 514.32563745 555.54452085 511.52213287 575.31805801 C511.27269928 577.20089493 511.27269928 577.20089493 511.01822662 579.12176895 C504.19616847 630.07243663 490.14476806 679.64309251 468.52213287 726.31805801 C468.05049713 727.34495743 467.57886139 728.37185684 467.09293365 729.42987442 C453.28403611 759.37175419 436.76634609 787.74177708 417.08805084 814.20965958 C415.53661034 816.29856512 413.99921295 818.39723182 412.46353912 820.49774551 C405.8711881 829.46180657 398.86894826 837.96506057 391.52213287 846.31805801 C390.864711 847.07602676 390.20728912 847.83399551 389.52994537 848.61493301 C387.87137942 850.52572329 386.19779558 852.42225026 384.52213287 854.31805801 C383.92884186 854.99618546 383.33555084 855.6743129 382.72428131 856.37298965 C376.50962887 863.39100325 369.95780872 870.03554341 363.3197403 876.65082169 C361.45570044 878.5094791 359.59709776 880.37345415 357.73892975 882.23797989 C351.83750227 888.14305086 345.92669813 893.95307977 339.52213287 899.31805801 C338.46545017 900.23001593 337.40943322 901.14274597 336.35416412 902.05633926 C269.86401796 958.74069414 189.28213966 997.75955921 103.70963287 1015.06805801 C103.00498901 1015.21135544 102.30034515 1015.35465286 101.57434845 1015.50229263 C96.56875806 1016.51149665 91.55018239 1017.4283489 86.52213287 1018.31805801 C85.42372841 1018.5164199 85.42372841 1018.5164199 84.30313396 1018.7187891 C68.54148525 1021.49523392 53.00652002 1021.7919799 37.03385162 1021.78680801 C35.00575406 1021.79128962 32.97766576 1021.79745336 30.94957286 1021.80367517 C24.58724815 1021.82273902 18.22505445 1021.82585843 11.86270905 1021.81903458 C6.11349937 1021.81315693 0.36475604 1021.82722654 -5.38436127 1021.8600502 C-65.95354048 1022.19787206 -65.95354048 1022.19787206 -92.47786713 1016.31805801 C-94.2378022 1015.97326084 -95.99889342 1015.63428975 -97.76131439 1015.30243301 C-102.06363937 1014.47838528 -106.33407482 1013.54975774 -110.60286713 1012.56805801 C-111.70296112 1012.31944016 -111.70296112 1012.31944016 -112.82527924 1012.06579971 C-146.84692409 1004.34884963 -179.83291033 992.97789437 -211.47786713 978.31805801 C-212.50476654 977.84642227 -213.53166595 977.37478653 -214.58968353 976.8888588 C-244.5315633 963.07996125 -272.90158619 946.56227123 -299.36946869 926.88397598 C-301.45837423 925.33253548 -303.55704093 923.79513809 -305.65755463 922.25946426 C-314.62161568 915.66711324 -323.12486968 908.6648734 -331.47786713 901.31805801 C-332.23583588 900.66063614 -332.99380463 900.00321426 -333.77474213 899.32587051 C-335.6855324 897.66730456 -337.58205937 895.99372072 -339.47786713 894.31805801 C-340.49505829 893.42812149 -340.49505829 893.42812149 -341.53279877 892.52020645 C-348.55081237 886.30555401 -355.19535252 879.75373386 -361.8106308 873.11566544 C-363.66928821 871.25162558 -365.53326327 869.3930229 -367.397789 867.53485489 C-373.30285997 861.63342741 -379.11288888 855.72262327 -384.47786713 849.31805801 C-385.38982504 848.26137531 -386.30255508 847.20535836 -387.21614838 846.15008926 C-447.46544066 775.47830939 -486.82621785 689.66122739 -505.79036713 581.13055801 C-506.01115936 579.56084244 -506.01115936 579.56084244 -506.23641205 577.95941544 C-506.700574 574.41695532 -507.10516715 570.87104564 -507.47786713 567.31805801 C-507.56400269 566.50907059 -507.65013824 565.70008316 -507.73888397 564.86658096 C-509.45975509 548.19 -509.84273417 531.59769528 -509.79592514 514.84019089 C-509.79027699 512.78526608 -509.7874615 510.73034955 -509.78484344 508.67541885 C-509.7479213 488.73561833 -509.2813717 469.09159518 -506.47786713 449.31805801 C-506.31157806 448.0628334 -506.145289 446.8076088 -505.97396088 445.51434708 C-499.15190272 394.56367939 -485.10050231 344.99302352 -463.47786713 298.31805801 C-463.00623138 297.2911586 -462.53459564 296.26425919 -462.04866791 295.20624161 C-448.23977037 265.26436184 -431.72208034 236.89433895 -412.0437851 210.42645645 C-410.4923446 208.33755091 -408.9549472 206.23888421 -407.41927338 204.13837051 C-400.82692236 195.17430946 -393.82468251 186.67105546 -386.47786713 178.31805801 C-385.82044525 177.56008926 -385.16302338 176.80212051 -384.48567963 176.02118301 C-382.82711367 174.11039274 -381.15352983 172.21386577 -379.47786713 170.31805801 C-378.5879306 169.30086685 -378.5879306 169.30086685 -377.68001556 168.26312637 C-371.46536312 161.24511277 -364.91354297 154.60057262 -358.27547455 147.98529434 C-356.41143469 146.12663693 -354.55283201 144.26266187 -352.694664 142.39813614 C-346.79323652 136.49306517 -340.88243238 130.68303626 -334.47786713 125.31805801 C-333.42118442 124.4061001 -332.36516748 123.49337006 -331.30989838 122.57977676 C-260.6381185 62.33048448 -174.8210365 22.96970729 -66.29036713 4.00555801 C-65.24389008 3.85836319 -64.19741302 3.71116837 -63.11922455 3.55951309 C-59.57676443 3.09535114 -56.03085475 2.69075799 -52.47786713 2.31805801 C-51.26438599 2.18885468 -51.26438599 2.18885468 -50.02639008 2.05704117 C-33.34980911 0.33617005 -16.7575044 -0.04680903 0 0 Z " fill="#4AB247" transform="translate(509.47786712646484,2.6819419860839844)"/>
<path d="M0 0 C3.62431002 0.00536465 7.24849644 0.00002497 10.87280273 -0.00634766 C40.5395173 -0.01691908 40.5395173 -0.01691908 52.19116211 2.56787109 C56.52172508 3.49965206 60.80479066 4.33226825 65.19116211 4.94287109 C74.51549026 6.46136868 83.55433265 9.35111679 92.56616211 12.13037109 C93.33718262 12.36771973 94.10820313 12.60506836 94.90258789 12.84960938 C105.47501238 16.1718347 115.03471264 20.68118223 124.69458008 26.09033203 C127.27395243 27.52369053 129.8921485 28.88166351 132.50366211 30.25537109 C137.81111355 33.169266 142.67961502 36.56553303 147.56616211 40.13037109 C148.45174805 40.75943359 149.33733398 41.38849609 150.24975586 42.03662109 C179.38193944 62.86303319 207.16425116 90.35322865 224.02319336 122.26318359 C225.68652796 125.35403827 227.45949984 128.36377122 229.25366211 131.38037109 C231.69674847 135.54484435 233.77025287 139.64059799 235.56616211 144.13037109 C236.3745258 145.88228559 237.18746904 147.63209047 238.00366211 149.38037109 C240.04309578 153.85984149 241.83938996 158.36206101 243.46850586 163.00537109 C244.29191049 165.34958356 245.1387948 167.67807671 246.00756836 170.00537109 C249.67118498 179.91868664 252.46136364 189.77756384 254.56616211 200.13037109 C254.77660156 201.15549805 254.98704102 202.180625 255.20385742 203.23681641 C257.96478912 216.86768233 260.41534622 230.19386589 260.56616211 244.13037109 C260.59468262 245.60715332 260.59468262 245.60715332 260.6237793 247.11376953 C261.16504113 277.00739427 260.2409793 307.58102214 250.56616211 336.13037109 C249.62468291 339.50204347 248.80288336 342.89416011 248.14428711 346.33349609 C247.21871574 351.02518543 245.87604887 354.85000614 243.62475586 359.06396484 C242.5228054 361.21500468 241.62970079 363.37823733 240.75366211 365.63037109 C235.38025466 379.21949032 229.27121562 391.70965642 221.56616211 404.13037109 C221.18169922 404.75717773 220.79723633 405.38398437 220.40112305 406.02978516 C213.15290599 417.8120737 205.03027896 428.67754281 195.64819336 438.86474609 C193.74175771 440.93929146 191.898506 443.05303041 190.06616211 445.19287109 C182.91163455 453.3647856 175.08571226 460.41040506 166.56616211 467.13037109 C165.60194336 467.91154297 164.63772461 468.69271484 163.64428711 469.49755859 C123.33646477 501.51874741 76.74234602 516.91517685 25.56616211 518.13037109 C24.84305847 518.14757202 24.11995483 518.16477295 23.37493896 518.18249512 C-0.16004849 518.6982059 -23.71417532 518.07643861 -47.24307251 517.49157715 C-50.2388794 517.41721991 -53.234711 517.34942373 -56.23080444 517.28771973 C-73.49388927 516.92409371 -90.2189098 515.84428746 -107.29467773 513.06518555 C-114.31472812 511.93463173 -121.35113176 511.36064386 -128.4412384 510.88154602 C-134.37178313 510.48008079 -140.07828144 509.47103956 -145.90745544 508.32199097 C-151.27667391 507.28958218 -156.64999916 506.53150992 -162.07836914 505.88427734 C-162.90809235 505.78521591 -163.73781555 505.68615448 -164.59268188 505.58409119 C-167.9908142 505.18325954 -171.38978695 504.79030921 -174.78955078 504.40356445 C-185.0348909 503.22925976 -195.08470784 501.75472108 -205.15046692 499.48292542 C-210.17920034 498.34938259 -215.10167469 497.61588644 -220.25415039 497.27880859 C-223.01821226 497.09057499 -225.71342026 496.6450447 -228.43383789 496.13037109 C-229.25136092 497.71111674 -230.06265786 499.29508333 -230.87133789 500.88037109 C-231.5500293 502.20294922 -231.5500293 502.20294922 -232.24243164 503.55224609 C-233.26839187 505.77235675 -233.94892392 507.74481729 -234.43383789 510.13037109 C-235.09383789 510.13037109 -235.75383789 510.13037109 -236.43383789 510.13037109 C-236.82249023 511.21125 -236.82249023 511.21125 -237.21899414 512.31396484 C-243.40284558 526.65016063 -257.26975663 538.75002549 -269.43383789 548.13037109 C-270.14668945 548.68208984 -270.85954102 549.23380859 -271.59399414 549.80224609 C-286.83147806 560.72391087 -305.97216611 567.02745219 -324.43383789 569.13037109 C-325.29364258 569.24123047 -326.15344727 569.35208984 -327.03930664 569.46630859 C-343.02581995 571.34707487 -358.26022848 569.22371109 -373.67993164 565.03271484 C-377.62190512 564.08516451 -381.40742432 563.56288728 -385.43383789 563.13037109 C-389.54149839 568.83623397 -393.44929644 574.65287832 -397.24633789 580.56787109 C-403.04279461 589.59606381 -409.00228214 598.51373686 -414.97607422 607.42504883 C-419.5564828 614.26975953 -424.0327381 621.16932317 -428.43383789 628.13037109 C-433.83227949 636.56462026 -439.28924173 644.96241323 -444.80883789 653.31787109 C-445.39725464 654.21650879 -445.39725464 654.21650879 -445.99755859 655.13330078 C-453.93767201 667.08993891 -453.93767201 667.08993891 -459.43383789 670.13037109 C-469.34270961 672.04475898 -476.25679943 668.36983979 -484.43383789 663.13037109 C-485.01407715 662.77201172 -485.59431641 662.41365234 -486.19213867 662.04443359 C-500.20276007 653.35854135 -500.20276007 653.35854135 -502.43383789 646.13037109 C-503.92742978 635.84118254 -500.43846398 628.10379139 -494.80883789 619.75537109 C-493.81398381 618.2489019 -492.81919652 616.74238858 -491.82446289 615.23583984 C-491.00945312 614.0106665 -491.00945312 614.0106665 -490.17797852 612.76074219 C-487.64889313 608.94658122 -485.15247678 605.11132719 -482.65283203 601.27783203 C-479.32743405 596.18020667 -475.99184108 591.08926212 -472.65692139 585.99786377 C-471.39560487 584.07199414 -470.13466581 582.14587775 -468.8737793 580.21972656 C-466.65509344 576.83070177 -464.43507792 573.44255067 -462.21438599 570.05484009 C-461.3214805 568.69228121 -460.4289612 567.32946919 -459.53683472 565.96640015 C-454.91984953 558.91268752 -450.28165963 551.87665427 -445.54321289 544.90380859 C-444.78607163 543.78552319 -444.02898986 542.66719751 -443.27197266 541.54882812 C-441.87426237 539.48962911 -440.4689035 537.43559368 -439.0546875 535.38769531 C-438.13441772 534.0305542 -438.13441772 534.0305542 -437.19555664 532.64599609 C-436.65890381 531.86514648 -436.12225098 531.08429687 -435.56933594 530.27978516 C-434.12243276 527.94605626 -434.12243276 527.94605626 -434.43383789 524.13037109 C-435.37622584 522.02549523 -435.37622584 522.02549523 -436.73461914 519.94287109 C-437.21737305 519.16169922 -437.70012695 518.38052734 -438.19750977 517.57568359 C-438.70862305 516.76873047 -439.21973633 515.96177734 -439.74633789 515.13037109 C-440.24584961 514.32341797 -440.74536133 513.51646484 -441.26000977 512.68505859 C-444.00361519 508.2715996 -444.00361519 508.2715996 -447.03613281 504.05615234 C-448.83814903 501.5733045 -449.52244911 499.04681518 -450.43383789 496.13037109 C-450.76512695 495.48712891 -451.09641602 494.84388672 -451.43774414 494.18115234 C-452.73445205 491.51145959 -453.21849515 488.77322765 -453.79321289 485.87646484 C-454.3950387 483.07488198 -454.3950387 483.07488198 -455.44946289 480.22802734 C-459.86159276 466.9139594 -458.79646102 452.97839049 -458.43383789 439.13037109 C-459.10713135 438.93701172 -459.7804248 438.74365234 -460.47412109 438.54443359 C-461.80963013 438.15384766 -461.80963013 438.15384766 -463.17211914 437.75537109 C-464.0516626 437.50013672 -464.93120605 437.24490234 -465.83740234 436.98193359 C-468.85356783 435.99271073 -471.5672748 434.70142107 -474.35180664 433.19287109 C-476.69634522 431.99640863 -479.10427176 430.98698409 -481.52685547 429.96044922 C-502.64644903 420.76743704 -523.03577033 408.15376715 -532.43383789 386.13037109 C-534.88030091 379.75127594 -537.13332408 373.34708268 -538.93383789 366.75537109 C-540.90375708 360.02665837 -544.26055993 353.77821716 -550.43383789 350.13037109 C-551.88433751 349.80195609 -553.34420402 349.51354384 -554.80883789 349.25537109 C-559.95999966 348.24567493 -563.10462186 346.18188587 -566.43383789 342.13037109 C-570.85807766 334.90137456 -573.42218805 327.48257257 -574.46899414 319.07958984 C-574.55257675 318.4213472 -574.63615936 317.76310455 -574.72227478 317.08491516 C-574.98599741 314.9965688 -575.2412363 312.90728611 -575.49633789 310.81787109 C-575.67092397 309.42782869 -575.84604979 308.03785396 -576.02172852 306.64794922 C-576.50380656 302.81007032 -576.97668295 298.97131778 -577.43383789 295.13037109 C-577.56940094 294.10670692 -577.56940094 294.10670692 -577.70770264 293.06236267 C-578.47175029 286.9626079 -578.5790059 280.94102526 -578.56665039 274.79833984 C-578.56760712 273.72650955 -578.56856384 272.65467926 -578.56954956 271.55036926 C-578.57022725 269.28707826 -578.56840175 267.02378527 -578.56420898 264.76049805 C-578.55891324 261.36616418 -578.56413781 257.97196619 -578.57055664 254.57763672 C-578.58491378 218.46662287 -578.58491378 218.46662287 -575.74633789 203.63037109 C-575.57191162 202.71239746 -575.39748535 201.79442383 -575.21777344 200.84863281 C-573.0682283 190.36182383 -569.47968679 181.63914887 -561.07055664 174.65771484 C-557.07411996 172.34274189 -553.00361552 171.77063732 -548.44946289 171.28662109 C-544.5631396 169.79652823 -543.44493959 168.0079844 -541.45678711 164.44384766 C-539.7786521 160.64861916 -539.05290314 156.82999055 -538.37133789 152.75537109 C-533.99352576 129.99074802 -521.49716576 115.83793748 -502.70727539 102.97412109 C-495.28350335 97.98312806 -487.76380855 93.46235936 -479.43383789 90.13037109 C-477.78658204 89.36258235 -476.14092341 88.59136309 -474.49633789 87.81787109 C-467.29151857 84.52763724 -459.87056834 81.84153716 -452.43383789 79.13037109 C-451.41676758 78.75783203 -450.39969727 78.38529297 -449.35180664 78.00146484 C-447.57298415 77.35253818 -445.79308421 76.70655502 -444.01196289 76.06396484 C-442.22793784 75.41793153 -440.44685466 74.76373749 -438.66821289 74.10302734 C-430.81320149 71.19579547 -422.90130319 68.78167385 -414.80883789 66.63037109 C-411.57665347 65.76452646 -408.47693096 64.81135806 -405.37133789 63.56787109 C-401.54956253 62.05803392 -397.70404737 61.33552336 -393.67211914 60.59521484 C-391.34820559 60.18062181 -391.34820559 60.18062181 -388.93383789 59.13037109 C-386.45845962 58.14021978 -384.23803878 57.67332755 -381.62133789 57.19287109 C-378.40084532 56.58873142 -375.47148835 55.85652209 -372.43383789 54.63037109 C-369.617089 53.49485051 -366.9311731 52.76846616 -363.94555664 52.22021484 C-357.99584168 51.07297993 -352.12987608 49.63687263 -346.24633789 48.19287109 C-338.03182445 46.19451763 -329.83367631 44.31133878 -321.51977539 42.77099609 C-318.34978868 42.15309512 -318.34978868 42.15309512 -314.96508789 41.13427734 C-311.50280994 40.1499793 -308.10120646 39.44960641 -304.55883789 38.81787109 C-298.47236695 37.7159026 -292.40864425 36.52472637 -286.34814453 35.2878418 C-277.21304861 33.42654095 -268.09164283 31.67833813 -258.87231445 30.29223633 C-251.846892 29.22664028 -244.86221041 27.96372255 -237.87133789 26.69287109 C-218.09571467 23.12021652 -198.23593049 20.18479141 -178.33032227 17.43676758 C-177.21077148 17.28022705 -176.0912207 17.12368652 -174.93774414 16.96240234 C-173.94589111 16.82552002 -172.95403809 16.6886377 -171.93212891 16.54760742 C-169.31447697 16.17704738 -169.31447697 16.17704738 -166.43383789 15.13037109 C-164.39384938 14.99732837 -162.35153778 14.8992999 -160.30883789 14.81787109 C-153.21761947 14.4466637 -146.30595784 13.37292823 -139.30883789 12.19287109 C-129.88427193 10.61507894 -120.52467357 9.45316477 -111.00805664 8.63037109 C-104.28465448 8.0466952 -97.57893502 7.30895598 -90.87133789 6.56787109 C-89.69845215 6.44081787 -88.52556641 6.31376465 -87.31713867 6.18286133 C-86.21998535 6.06112549 -85.12283203 5.93938965 -83.99243164 5.81396484 C-83.01588623 5.70624756 -82.03934082 5.59853027 -81.03320312 5.48754883 C-78.50037386 5.18771121 -78.50037386 5.18771121 -76.33325195 4.60302734 C-72.88188647 3.74417855 -69.28850272 3.83155753 -65.74633789 3.69287109 C-58.08349735 3.34656118 -50.55062687 2.64810016 -42.94946289 1.63037109 C-28.65523568 -0.0513027 -14.37153076 -0.02531399 0 0 Z " fill="#4AB247" transform="translate(657.433837890625,214.86962890625)"/>
<path d="M0 0 C3.62431002 0.00536465 7.24849644 0.00002497 10.87280273 -0.00634766 C40.5395173 -0.01691908 40.5395173 -0.01691908 52.19116211 2.56787109 C56.52172508 3.49965206 60.80479066 4.33226825 65.19116211 4.94287109 C74.51549026 6.46136868 83.55433265 9.35111679 92.56616211 12.13037109 C93.33718262 12.36771973 94.10820313 12.60506836 94.90258789 12.84960938 C105.47501238 16.1718347 115.03471264 20.68118223 124.69458008 26.09033203 C127.27395243 27.52369053 129.8921485 28.88166351 132.50366211 30.25537109 C137.81111355 33.169266 142.67961502 36.56553303 147.56616211 40.13037109 C148.45174805 40.75943359 149.33733398 41.38849609 150.24975586 42.03662109 C179.38193944 62.86303319 207.16425116 90.35322865 224.02319336 122.26318359 C225.68652796 125.35403827 227.45949984 128.36377122 229.25366211 131.38037109 C231.69674847 135.54484435 233.77025287 139.64059799 235.56616211 144.13037109 C236.3745258 145.88228559 237.18746904 147.63209047 238.00366211 149.38037109 C240.04309578 153.85984149 241.83938996 158.36206101 243.46850586 163.00537109 C244.29191049 165.34958356 245.1387948 167.67807671 246.00756836 170.00537109 C249.67118498 179.91868664 252.46136364 189.77756384 254.56616211 200.13037109 C254.77660156 201.15549805 254.98704102 202.180625 255.20385742 203.23681641 C257.96478912 216.86768233 260.41534622 230.19386589 260.56616211 244.13037109 C260.59468262 245.60715332 260.59468262 245.60715332 260.6237793 247.11376953 C261.16504113 277.00739427 260.2409793 307.58102214 250.56616211 336.13037109 C249.62468291 339.50204347 248.80288336 342.89416011 248.14428711 346.33349609 C247.21871574 351.02518543 245.87604887 354.85000614 243.62475586 359.06396484 C242.5228054 361.21500468 241.62970079 363.37823733 240.75366211 365.63037109 C235.38025466 379.21949032 229.27121562 391.70965642 221.56616211 404.13037109 C221.18169922 404.75717773 220.79723633 405.38398437 220.40112305 406.02978516 C213.15290599 417.8120737 205.03027896 428.67754281 195.64819336 438.86474609 C193.74175771 440.93929146 191.898506 443.05303041 190.06616211 445.19287109 C182.91163455 453.3647856 175.08571226 460.41040506 166.56616211 467.13037109 C165.60194336 467.91154297 164.63772461 468.69271484 163.64428711 469.49755859 C123.33646477 501.51874741 76.74234602 516.91517685 25.56616211 518.13037109 C24.84305847 518.14757202 24.11995483 518.16477295 23.37493896 518.18249512 C-0.16004849 518.6982059 -23.71417532 518.07643861 -47.24307251 517.49157715 C-50.2388794 517.41721991 -53.234711 517.34942373 -56.23080444 517.28771973 C-73.49388927 516.92409371 -90.2189098 515.84428746 -107.29467773 513.06518555 C-114.31472812 511.93463173 -121.35113176 511.36064386 -128.4412384 510.88154602 C-134.37178313 510.48008079 -140.07828144 509.47103956 -145.90745544 508.32199097 C-151.27667391 507.28958218 -156.64999916 506.53150992 -162.07836914 505.88427734 C-162.90809235 505.78521591 -163.73781555 505.68615448 -164.59268188 505.58409119 C-167.9908142 505.18325954 -171.38978695 504.79030921 -174.78955078 504.40356445 C-185.0348909 503.22925976 -195.08470784 501.75472108 -205.15046692 499.48292542 C-210.17920034 498.34938259 -215.10167469 497.61588644 -220.25415039 497.27880859 C-223.01821226 497.09057499 -225.71342026 496.6450447 -228.43383789 496.13037109 C-229.25136092 497.71111674 -230.06265786 499.29508333 -230.87133789 500.88037109 C-231.5500293 502.20294922 -231.5500293 502.20294922 -232.24243164 503.55224609 C-233.26839187 505.77235675 -233.94892392 507.74481729 -234.43383789 510.13037109 C-235.09383789 510.13037109 -235.75383789 510.13037109 -236.43383789 510.13037109 C-236.82249023 511.21125 -236.82249023 511.21125 -237.21899414 512.31396484 C-243.40284558 526.65016063 -257.26975663 538.75002549 -269.43383789 548.13037109 C-270.14668945 548.68208984 -270.85954102 549.23380859 -271.59399414 549.80224609 C-286.83147806 560.72391087 -305.97216611 567.02745219 -324.43383789 569.13037109 C-325.29364258 569.24123047 -326.15344727 569.35208984 -327.03930664 569.46630859 C-343.02581995 571.34707487 -358.26022848 569.22371109 -373.67993164 565.03271484 C-377.62190512 564.08516451 -381.40742432 563.56288728 -385.43383789 563.13037109 C-389.54149839 568.83623397 -393.44929644 574.65287832 -397.24633789 580.56787109 C-403.04279461 589.59606381 -409.00228214 598.51373686 -414.97607422 607.42504883 C-419.5564828 614.26975953 -424.0327381 621.16932317 -428.43383789 628.13037109 C-433.83227949 636.56462026 -439.28924173 644.96241323 -444.80883789 653.31787109 C-445.39725464 654.21650879 -445.39725464 654.21650879 -445.99755859 655.13330078 C-453.93767201 667.08993891 -453.93767201 667.08993891 -459.43383789 670.13037109 C-469.34270961 672.04475898 -476.25679943 668.36983979 -484.43383789 663.13037109 C-485.01407715 662.77201172 -485.59431641 662.41365234 -486.19213867 662.04443359 C-500.20276007 653.35854135 -500.20276007 653.35854135 -502.43383789 646.13037109 C-503.92742978 635.84118254 -500.43846398 628.10379139 -494.80883789 619.75537109 C-493.81398381 618.2489019 -492.81919652 616.74238858 -491.82446289 615.23583984 C-491.00945312 614.0106665 -491.00945312 614.0106665 -490.17797852 612.76074219 C-487.64889313 608.94658122 -485.15247678 605.11132719 -482.65283203 601.27783203 C-479.32743405 596.18020667 -475.99184108 591.08926212 -472.65692139 585.99786377 C-471.39560487 584.07199414 -470.13466581 582.14587775 -468.8737793 580.21972656 C-466.65509344 576.83070177 -464.43507792 573.44255067 -462.21438599 570.05484009 C-461.3214805 568.69228121 -460.4289612 567.32946919 -459.53683472 565.96640015 C-454.91984953 558.91268752 -450.28165963 551.87665427 -445.54321289 544.90380859 C-444.78607163 543.78552319 -444.02898986 542.66719751 -443.27197266 541.54882812 C-441.87426237 539.48962911 -440.4689035 537.43559368 -439.0546875 535.38769531 C-438.13441772 534.0305542 -438.13441772 534.0305542 -437.19555664 532.64599609 C-436.65890381 531.86514648 -436.12225098 531.08429687 -435.56933594 530.27978516 C-434.12243276 527.94605626 -434.12243276 527.94605626 -434.43383789 524.13037109 C-435.37622584 522.02549523 -435.37622584 522.02549523 -436.73461914 519.94287109 C-437.21737305 519.16169922 -437.70012695 518.38052734 -438.19750977 517.57568359 C-438.70862305 516.76873047 -439.21973633 515.96177734 -439.74633789 515.13037109 C-440.24584961 514.32341797 -440.74536133 513.51646484 -441.26000977 512.68505859 C-444.00361519 508.2715996 -444.00361519 508.2715996 -447.03613281 504.05615234 C-448.83814903 501.5733045 -449.52244911 499.04681518 -450.43383789 496.13037109 C-450.76512695 495.48712891 -451.09641602 494.84388672 -451.43774414 494.18115234 C-452.73445205 491.51145959 -453.21849515 488.77322765 -453.79321289 485.87646484 C-454.3950387 483.07488198 -454.3950387 483.07488198 -455.44946289 480.22802734 C-459.86159276 466.9139594 -458.79646102 452.97839049 -458.43383789 439.13037109 C-459.10713135 438.93701172 -459.7804248 438.74365234 -460.47412109 438.54443359 C-461.80963013 438.15384766 -461.80963013 438.15384766 -463.17211914 437.75537109 C-464.0516626 437.50013672 -464.93120605 437.24490234 -465.83740234 436.98193359 C-468.85356783 435.99271073 -471.5672748 434.70142107 -474.35180664 433.19287109 C-476.69634522 431.99640863 -479.10427176 430.98698409 -481.52685547 429.96044922 C-502.64644903 420.76743704 -523.03577033 408.15376715 -532.43383789 386.13037109 C-534.88030091 379.75127594 -537.13332408 373.34708268 -538.93383789 366.75537109 C-540.90375708 360.02665837 -544.26055993 353.77821716 -550.43383789 350.13037109 C-551.88433751 349.80195609 -553.34420402 349.51354384 -554.80883789 349.25537109 C-559.95999966 348.24567493 -563.10462186 346.18188587 -566.43383789 342.13037109 C-570.85807766 334.90137456 -573.42218805 327.48257257 -574.46899414 319.07958984 C-574.55257675 318.4213472 -574.63615936 317.76310455 -574.72227478 317.08491516 C-574.98599741 314.9965688 -575.2412363 312.90728611 -575.49633789 310.81787109 C-575.67092397 309.42782869 -575.84604979 308.03785396 -576.02172852 306.64794922 C-576.50380656 302.81007032 -576.97668295 298.97131778 -577.43383789 295.13037109 C-577.56940094 294.10670692 -577.56940094 294.10670692 -577.70770264 293.06236267 C-578.47175029 286.9626079 -578.5790059 280.94102526 -578.56665039 274.79833984 C-578.56760712 273.72650955 -578.56856384 272.65467926 -578.56954956 271.55036926 C-578.57022725 269.28707826 -578.56840175 267.02378527 -578.56420898 264.76049805 C-578.55891324 261.36616418 -578.56413781 257.97196619 -578.57055664 254.57763672 C-578.58491378 218.46662287 -578.58491378 218.46662287 -575.74633789 203.63037109 C-575.57191162 202.71239746 -575.39748535 201.79442383 -575.21777344 200.84863281 C-573.0682283 190.36182383 -569.47968679 181.63914887 -561.07055664 174.65771484 C-557.07411996 172.34274189 -553.00361552 171.77063732 -548.44946289 171.28662109 C-544.5631396 169.79652823 -543.44493959 168.0079844 -541.45678711 164.44384766 C-539.7786521 160.64861916 -539.05290314 156.82999055 -538.37133789 152.75537109 C-533.99352576 129.99074802 -521.49716576 115.83793748 -502.70727539 102.97412109 C-495.28350335 97.98312806 -487.76380855 93.46235936 -479.43383789 90.13037109 C-477.78658204 89.36258235 -476.14092341 88.59136309 -474.49633789 87.81787109 C-467.29151857 84.52763724 -459.87056834 81.84153716 -452.43383789 79.13037109 C-451.41676758 78.75783203 -450.39969727 78.38529297 -449.35180664 78.00146484 C-447.57298415 77.35253818 -445.79308421 76.70655502 -444.01196289 76.06396484 C-442.22793784 75.41793153 -440.44685466 74.76373749 -438.66821289 74.10302734 C-430.81320149 71.19579547 -422.90130319 68.78167385 -414.80883789 66.63037109 C-411.57665347 65.76452646 -408.47693096 64.81135806 -405.37133789 63.56787109 C-401.54956253 62.05803392 -397.70404737 61.33552336 -393.67211914 60.59521484 C-391.34820559 60.18062181 -391.34820559 60.18062181 -388.93383789 59.13037109 C-386.45845962 58.14021978 -384.23803878 57.67332755 -381.62133789 57.19287109 C-378.40084532 56.58873142 -375.47148835 55.85652209 -372.43383789 54.63037109 C-369.617089 53.49485051 -366.9311731 52.76846616 -363.94555664 52.22021484 C-357.99584168 51.07297993 -352.12987608 49.63687263 -346.24633789 48.19287109 C-338.03182445 46.19451763 -329.83367631 44.31133878 -321.51977539 42.77099609 C-318.34978868 42.15309512 -318.34978868 42.15309512 -314.96508789 41.13427734 C-311.50280994 40.1499793 -308.10120646 39.44960641 -304.55883789 38.81787109 C-298.47236695 37.7159026 -292.40864425 36.52472637 -286.34814453 35.2878418 C-277.21304861 33.42654095 -268.09164283 31.67833813 -258.87231445 30.29223633 C-251.846892 29.22664028 -244.86221041 27.96372255 -237.87133789 26.69287109 C-218.09571467 23.12021652 -198.23593049 20.18479141 -178.33032227 17.43676758 C-177.21077148 17.28022705 -176.0912207 17.12368652 -174.93774414 16.96240234 C-173.94589111 16.82552002 -172.95403809 16.6886377 -171.93212891 16.54760742 C-169.31447697 16.17704738 -169.31447697 16.17704738 -166.43383789 15.13037109 C-164.39384938 14.99732837 -162.35153778 14.8992999 -160.30883789 14.81787109 C-153.21761947 14.4466637 -146.30595784 13.37292823 -139.30883789 12.19287109 C-129.88427193 10.61507894 -120.52467357 9.45316477 -111.00805664 8.63037109 C-104.28465448 8.0466952 -97.57893502 7.30895598 -90.87133789 6.56787109 C-89.69845215 6.44081787 -88.52556641 6.31376465 -87.31713867 6.18286133 C-86.21998535 6.06112549 -85.12283203 5.93938965 -83.99243164 5.81396484 C-83.01588623 5.70624756 -82.03934082 5.59853027 -81.03320312 5.48754883 C-78.50037386 5.18771121 -78.50037386 5.18771121 -76.33325195 4.60302734 C-72.88188647 3.74417855 -69.28850272 3.83155753 -65.74633789 3.69287109 C-58.08349735 3.34656118 -50.55062687 2.64810016 -42.94946289 1.63037109 C-28.65523568 -0.0513027 -14.37153076 -0.02531399 0 0 Z M-64.31393814 50.57532692 C-71.49149117 51.24715913 -78.6779396 51.72418612 -85.87133789 52.19287109 C-94.03034722 52.7548594 -102.0691519 53.49717981 -110.16040039 54.70068359 C-113.65092283 55.15886673 -117.10626164 55.38050029 -120.62133789 55.56787109 C-127.44382062 55.96668011 -134.10042296 56.91384679 -140.84790039 57.97827148 C-146.09872223 58.80019512 -151.3336822 59.47679408 -156.62133789 60.00537109 C-168.87057877 61.26700493 -181.02771238 63.27867456 -193.19265747 65.16644287 C-197.74358527 65.87220278 -202.29665733 66.56162128 -206.85180664 67.23974609 C-216.65377939 68.70557176 -226.37074231 70.20816716 -236.03540039 72.41552734 C-240.25282828 73.30264149 -244.48763748 73.97502327 -248.74633789 74.63037109 C-266.68024793 77.39150206 -266.68024793 77.39150206 -284.37133789 81.38427734 C-287.89158845 82.24188941 -291.43310392 82.91981227 -294.99633789 83.56787109 C-301.1811101 84.69436165 -307.34293367 85.90545037 -313.49633789 87.19287109 C-314.28145752 87.3552124 -315.06657715 87.51755371 -315.87548828 87.68481445 C-319.35341824 88.41777433 -322.74830178 89.22049986 -326.16821289 90.20068359 C-329.01894696 91.01225621 -331.69273679 91.53969 -334.62133789 91.94287109 C-342.8665448 93.2534359 -350.89510118 95.42052534 -358.97241211 97.5 C-361.90176796 98.25020798 -364.83614779 98.97871531 -367.77172852 99.70410156 C-391.25249301 105.51622947 -414.74556162 111.69777427 -437.43383789 120.13037109 C-439.78710826 120.96623215 -442.14125496 121.79963075 -444.49633789 122.63037109 C-446.80896786 123.46334368 -449.12146245 124.29669219 -451.43383789 125.13037109 C-452.42262939 125.47817627 -452.42262939 125.47817627 -453.43139648 125.83300781 C-467.13341743 130.65593877 -482.27498038 136.44059468 -489.30883789 150.13037109 C-490.0603077 151.77803824 -490.76380109 153.44794292 -491.43383789 155.13037109 C-492.15801407 156.80450829 -492.15801407 156.80450829 -492.89682007 158.51246643 C-494.97235091 164.09663885 -495.50073654 169.80765763 -496.09643555 175.7043457 C-496.22276682 176.92988883 -496.34909809 178.15543196 -496.47925758 179.41811275 C-497.75811985 192.89619513 -497.87603969 206.34751775 -497.8368144 219.87529492 C-497.82898978 223.44624197 -497.83632529 227.01717106 -497.8409729 230.58811951 C-497.84637144 236.58247113 -497.83940234 242.57671051 -497.82495117 248.57104492 C-497.81048474 254.63980377 -497.81048088 260.70834094 -497.82495117 266.77709961 C-498.10932515 306.46780248 -498.10932515 306.46780248 -496.28540039 346.09521484 C-496.19431 347.40575333 -496.1032196 348.71629181 -496.0093689 350.06654358 C-495.20389852 358.44964228 -492.67960379 364.87517517 -488.43383789 372.13037109 C-487.77383789 372.13037109 -487.11383789 372.13037109 -486.43383789 372.13037109 C-485.93883789 373.61537109 -485.93883789 373.61537109 -485.43383789 375.13037109 C-483.46749898 376.79096828 -481.53336192 378.28093976 -479.43383789 379.75537109 C-478.82096924 380.18978516 -478.20810059 380.62419922 -477.57666016 381.07177734 C-462.57708269 391.61843114 -462.57708269 391.61843114 -445.43383789 396.13037109 C-444.99555664 395.28216797 -444.55727539 394.43396484 -444.10571289 393.56005859 C-438.99591369 383.99174961 -432.79143558 376.06962692 -425.43383789 368.13037109 C-424.2543457 366.84453125 -424.2543457 366.84453125 -423.05102539 365.53271484 C-413.04564732 355.07906714 -399.41729885 345.31906288 -385.43383789 341.13037109 C-385.43383789 340.47037109 -385.43383789 339.81037109 -385.43383789 339.13037109 C-384.82797852 339.02080078 -384.22211914 338.91123047 -383.59790039 338.79833984 C-379.22946373 337.97169721 -375.02662811 337.04347428 -370.80883789 335.63037109 C-343.21699362 327.15050632 -310.24924485 331.79444773 -284.99633789 344.69287109 C-262.76382647 356.53322549 -247.25020291 372.62001826 -234.43383789 394.13037109 C-233.92208008 394.97341797 -233.41032227 395.81646484 -232.88305664 396.68505859 C-230.09450918 401.43957314 -228.51600262 405.71954743 -227.43383789 411.13037109 C-226.77383789 411.13037109 -226.11383789 411.13037109 -225.43383789 411.13037109 C-225.31008789 411.94763672 -225.18633789 412.76490234 -225.05883789 413.60693359 C-224.60871232 416.14451651 -224.10495502 418.5933426 -223.49633789 421.09130859 C-221.05929718 431.15150377 -219.71574442 440.78440162 -219.43383789 451.13037109 C-207.02515024 453.60707977 -194.63087944 455.76313733 -182.09399414 457.47802734 C-178.48300369 457.97334337 -174.89679508 458.54913469 -171.30883789 459.19287109 C-165.40128983 460.21549386 -159.4612469 460.78628473 -153.49853516 461.37841797 C-148.88314682 461.84468371 -144.32351863 462.42431463 -139.74633789 463.19287109 C-134.42889723 464.06458268 -129.1751587 464.40410855 -123.79638672 464.66577148 C-118.43724553 464.97031872 -113.22276679 465.73038894 -107.93383789 466.63037109 C-100.82347633 467.84017463 -93.92717465 468.47298929 -86.71736145 468.79780579 C-83.15998582 469.02176209 -79.74411428 469.56456994 -76.24467945 470.2230196 C-63.67670599 472.54254396 -51.25829581 472.55006683 -38.51586914 472.49365234 C-36.15996806 472.49313198 -33.80406655 472.49365647 -31.44816589 472.49516296 C-26.54431558 472.49507394 -21.64063206 472.48478719 -16.73681641 472.46655273 C-10.49376128 472.44383071 -4.2509482 472.44333617 1.99213696 472.45007038 C6.84554648 472.45343229 11.69890215 472.44673927 16.55230141 472.43694115 C18.85288523 472.43312994 21.15347508 472.43192371 23.45406151 472.43352699 C35.99504735 472.4349894 48.16647059 472.10983143 60.56616211 470.13037109 C61.39151459 470.01089111 62.21686707 469.89141113 63.06723022 469.76831055 C77.00573801 467.69037995 89.17076217 462.71135939 101.56616211 456.13037109 C102.23276855 455.78377441 102.899375 455.43717773 103.58618164 455.08007812 C128.45363867 442.10113327 150.21351533 424.18810998 167.22436523 401.88671875 C168.46980254 400.25650114 169.72838663 398.63635022 170.98803711 397.01708984 C185.61519358 377.97656719 197.16998037 356.22459031 203.94848633 333.19189453 C204.77317455 330.43945683 205.65828883 327.70789297 206.54101562 324.97363281 C218.62635774 287.22452441 221.70180836 238.75804109 208.48950195 200.8671875 C207.32596163 197.41840722 206.53379546 193.9976659 205.75366211 190.44287109 C198.33842062 159.14418307 177.64930484 124.30594242 152.56616211 104.13037109 C150.89391202 102.46930662 149.22794838 100.80190391 147.56616211 99.13037109 C131.91216443 84.14397037 114.86729969 72.00828878 95.56616211 62.13037109 C94.4872168 61.57091797 93.40827148 61.01146484 92.29663086 60.43505859 C78.01650211 53.13917766 63.62028929 47.99367338 47.40991211 47.96923828 C46.21268524 47.96179092 46.21268524 47.96179092 44.99127197 47.95419312 C42.34955966 47.93960239 39.70790815 47.9327613 37.06616211 47.92724609 C36.14822876 47.92441872 35.23029541 47.92159134 34.2845459 47.91867828 C29.39078487 47.90367006 24.49705324 47.89446101 19.60327148 47.89013672 C15.6357266 47.88581756 11.66840727 47.87218977 7.70092773 47.84912109 C-16.43460445 47.71150695 -40.27762782 48.31157143 -64.31393814 50.57532692 Z " fill="#000100" transform="translate(657.433837890625,214.86962890625)"/>
<path d="M0 0 C2.56250774 -0.00218106 5.12457999 -0.0203821 7.68701172 -0.03930664 C21.9953291 -0.09155577 35.3901022 0.89408529 48.95654297 5.87280273 C49.94364258 6.22656982 50.93074219 6.58033691 51.94775391 6.94482422 C59.50966838 9.72552493 66.45862832 12.95282987 73.33154297 17.18530273 C74.24419922 17.72670898 75.15685547 18.26811523 76.09716797 18.82592773 C98.52538135 32.5391782 117.92837799 50.89245422 130.33154297 74.18530273 C131.16685547 75.66836914 131.16685547 75.66836914 132.01904297 77.18139648 C137.28286137 86.63131185 141.80935535 96.26061463 143.86669922 106.93920898 C144.59374336 110.45223738 145.63726325 113.87368731 146.64794922 117.31420898 C149.54327519 129.47457805 148.49641521 142.30095289 148.36425781 154.7175293 C148.33862775 157.43431643 148.33913129 160.14828801 148.35107422 162.86499023 C147.89931199 183.21580305 139.73455082 206.68708408 127.21826172 222.75561523 C125.52001998 224.94258492 124.0465877 227.15201263 122.58154297 229.49780273 C102.51897218 259.86277474 71.37337256 282.91890708 35.88818359 290.66430664 C23.20442161 293.24902284 10.41832126 293.37398122 -2.48095703 293.43530273 C-3.17861176 293.44075104 -3.87626648 293.44619934 -4.59506226 293.45181274 C-31.42828031 293.60776244 -57.15527974 286.65693043 -78.66845703 270.18530273 C-80.33258182 269.05654614 -81.99931971 267.93163381 -83.66845703 266.81030273 C-89.07265516 263.02397583 -93.87935444 258.71361261 -98.66845703 254.18530273 C-99.34650391 253.56010742 -100.02455078 252.93491211 -100.72314453 252.29077148 C-110.49709705 242.96822641 -117.90364087 231.79261202 -124.66845703 220.18530273 C-125.19052734 219.3409668 -125.71259766 218.49663086 -126.25048828 217.62670898 C-131.18420958 209.2823413 -134.00381398 200.12935662 -137.00756836 190.96020508 C-137.52750031 189.18762046 -137.52750031 189.18762046 -138.66845703 188.18530273 C-144.14335422 164.4398915 -146.90391808 137.68213172 -140.41064453 113.93530273 C-139.78100089 111.60230736 -139.2964041 109.30832367 -138.85595703 106.93530273 C-133.56055309 83.19139472 -119.74473065 62.1483577 -103.13720703 44.82983398 C-100.59285167 42.24773102 -100.59285167 42.24773102 -98.66845703 39.18530273 C-98.00845703 39.18530273 -97.34845703 39.18530273 -96.66845703 39.18530273 C-96.66845703 38.52530273 -96.66845703 37.86530273 -96.66845703 37.18530273 C-95.09904902 35.747176 -93.45971668 34.38500224 -91.79345703 33.06030273 C-90.78669922 32.2572168 -89.77994141 31.45413086 -88.74267578 30.62670898 C-87.72818359 29.82104492 -86.71369141 29.01538086 -85.66845703 28.18530273 C-84.80865234 27.47245117 -83.94884766 26.75959961 -83.06298828 26.02514648 C-77.55670956 21.48180999 -71.91725897 17.63613366 -65.66845703 14.18530273 C-65.02521484 13.82823242 -64.38197266 13.47116211 -63.71923828 13.10327148 C-54.94840221 8.48800974 -45.6599877 5.24730966 -36.04345703 2.93530273 C-35.37580322 2.77223633 -34.70814941 2.60916992 -34.02026367 2.44116211 C-22.81951876 -0.10908622 -11.42426229 -0.00108493 0 0 Z " fill="#000100" transform="translate(659.66845703125,328.814697265625)"/>
<path d="M0 0 C19.17812987 19.72728337 31.6466087 45.31314473 31.375 73.0625 C31.38660156 74.25166016 31.39820313 75.44082031 31.41015625 76.66601562 C31.38511865 84.26492814 30.36385576 90.79278561 28 98 C27.61848614 99.29909648 27.23813402 100.59853516 26.859375 101.8984375 C18.54757064 127.94599343 1.47606075 147.89718357 -21 163 C-21.70640625 163.51433594 -22.4128125 164.02867187 -23.140625 164.55859375 C-28.80579509 168.51189722 -35.38265435 170.39529205 -41.94189453 172.36523438 C-43.4052975 172.81658049 -44.85878466 173.30063833 -46.30419922 173.80664062 C-52.77615777 175.97893856 -58.57752128 176.40246575 -65.375 176.25 C-66.39086182 176.23541748 -67.40672363 176.22083496 -68.45336914 176.20581055 C-71.3030532 176.15573586 -74.15105644 176.08096941 -77 176 C-78.18722656 175.98066406 -79.37445312 175.96132813 -80.59765625 175.94140625 C-107.30055211 174.72930781 -131.49729819 157.82144202 -148.875 138.8125 C-159.55670019 126.6449994 -166.15964949 113.72798095 -170 98 C-170.17877686 97.36328369 -170.35755371 96.72656738 -170.54174805 96.07055664 C-172.37199481 89.02594092 -172.33125509 82.0557155 -172.3125 74.8125 C-172.32861328 73.58724609 -172.34472656 72.36199219 -172.36132812 71.09960938 C-172.37479926 45.54487412 -161.34100034 21.48195899 -143.44921875 3.42578125 C-142.64097656 2.62527344 -141.83273437 1.82476562 -141 1 C-140.11828125 0.04867188 -140.11828125 0.04867188 -139.21875 -0.921875 C-100.63079444 -41.96542773 -39.98797329 -33.31240328 0 0 Z " fill="#4AB247" transform="translate(733,401)"/>
<path d="M0 0 C1.48062542 0.26274146 2.95942285 0.53578236 4.4375 0.8125 C5.67306641 1.03873047 5.67306641 1.03873047 6.93359375 1.26953125 C9.41209425 1.85995111 11.70075563 2.55676342 14.1015625 3.38671875 C19.62991922 5.27210543 25.26357131 6.62883032 30.9375 8 C37.61357496 9.6194648 44.22294468 11.32469593 50.79125977 13.33935547 C53.66967527 14.200303 56.56966889 14.90166502 59.5 15.5625 C60.60472656 15.81257812 61.70945312 16.06265625 62.84765625 16.3203125 C65.53901459 16.90060538 68.23161075 17.43097886 70.9375 17.9375 C76.1347656 18.94151722 81.15517464 20.45616771 86.21484375 22 C90.11957909 23.03159159 94.00224672 23.74630351 97.97729492 24.44189453 C103.41541253 25.44597634 108.79597717 26.71124701 114.1875 27.9375 C123.02058133 29.92849435 131.84390276 31.81294314 140.765625 33.359375 C144.25983271 34.05146445 147.58917496 34.97848387 151 36 C144.52574222 50.02755853 132.77596844 62.11201578 119 69 C118.34 69 117.68 69 117 69 C117 69.66 117 70.32 117 71 C114.18938194 71.96416024 111.37670402 72.92140841 108.5625 73.875 C107.77939453 74.14441406 106.99628906 74.41382813 106.18945312 74.69140625 C97.26736834 77.70215091 89.13081852 79.37221307 79.6875 79.3125 C78.30111328 79.30512817 78.30111328 79.30512817 76.88671875 79.29760742 C69.88621646 79.1777779 63.62948112 78.34480227 57 76 C55.948125 75.64808594 54.89625 75.29617188 53.8125 74.93359375 C35.75650831 68.48198351 20.29300477 57.08527585 11 40 C11 39.34 11 38.68 11 38 C10.34 38 9.68 38 9 38 C8.74605469 37.28714844 8.49210938 36.57429687 8.23046875 35.83984375 C6.71555442 31.62418328 5.20831468 27.46470198 3.375 23.375 C0.20471567 15.59339302 -0.28096368 8.35086486 0 0 Z " fill="#49B046" transform="translate(238,667)"/>
<path d="M0 0 C8.96191462 7.11397266 15.14826959 14.95882281 21.4375 24.4375 C22.0975 25.4275 22.7575 26.4175 23.4375 27.4375 C24.11775637 29.43291868 24.78240497 31.43367991 25.4375 33.4375 C25.92992187 34.48550781 26.42234375 35.53351562 26.9296875 36.61328125 C28.67222854 40.63338659 29.19294696 44.54257819 29.625 48.875 C29.7477832 49.97231445 29.7477832 49.97231445 29.87304688 51.09179688 C30.07091885 52.87264466 30.25560707 54.65494927 30.4375 56.4375 C22.11687477 56.17748046 14.57812688 55.18197824 6.57373047 53.02709961 C0.92374431 51.51344102 -4.75010889 50.39162515 -10.51123047 49.38916016 C-15.37489247 48.53130376 -15.37489247 48.53130376 -17.5625 47.4375 C-19.55830723 47.11840291 -21.5593643 46.83178947 -23.5625 46.5625 C-28.5900266 45.82299554 -33.20985469 44.72163809 -38.03125 43.15625 C-40.88226879 42.34670146 -43.69540229 41.88137844 -46.625 41.4375 C-51.08992215 40.75409355 -55.0735747 39.67381515 -59.3125 38.15234375 C-61.74286449 37.3801967 -64.1107041 36.92279083 -66.625 36.5 C-74.04418959 35.24794709 -81.28612514 33.32530358 -88.5625 31.4375 C-89.23990234 31.26428223 -89.91730469 31.09106445 -90.61523438 30.91259766 C-103.06344435 27.7285208 -103.06344435 27.7285208 -108.125 25.75 C-111.31494589 24.53202066 -114.18497158 23.85969105 -117.5625 23.4375 C-117.12048036 18.57528392 -114.72842005 15.67767506 -111.625 12.125 C-111.13136963 11.55322021 -110.63773926 10.98144043 -110.12915039 10.39233398 C-99.803954 -1.28931301 -87.2236218 -8.59322554 -72.5625 -13.5625 C-71.675625 -13.88476562 -70.78875 -14.20703125 -69.875 -14.5390625 C-45.6295047 -22.08053924 -19.87004944 -14.51851493 0 0 Z " fill="#49B046" transform="translate(367.5625,601.5625)"/>
<path d="M0 0 C0.66 0.33 1.32 0.66 2 1 C-2.62 5.62 -7.24 10.24 -12 15 C-12.66 14.67 -13.32 14.34 -14 14 C-9.67106815 8.81580806 -5.23435005 4.27293882 0 0 Z " fill="#388B36" transform="translate(270,600)"/>
<path d="M0 0 C0.66 0.33 1.32 0.66 2 1 C-3.28 6.28 -8.56 11.56 -14 17 C-14.66 16.67 -15.32 16.34 -16 16 C-12.21309138 11.36103694 -8.30424428 7.3506875 -3.734375 3.48046875 C-1.91019463 1.96268408 -1.91019463 1.96268408 0 0 Z " fill="#3F993C" transform="translate(600,394)"/>
</svg>
